HIERARCHY
ROOT Hips
{
	OFFSET 49.113201 0.271889 54.172401
	CHANNELS 6 Xposition Yposition Zposition Xrotation Yrotation Zrotation
	JOINT spine
	{
		OFFSET 0.000000 -0.477352 8.301029
		CHANNELS 3 Xrotation Yrotation Zrotation
		JOINT spine1
		{
			OFFSET 0.000000 -0.000002 10.456501
			CHANNELS 3 Xrotation Yrotation Zrotation
			JOINT spine2
			{
				OFFSET 0.000000 -0.000002 10.019203
				CHANNELS 3 Xrotation Yrotation Zrotation
				JOINT Neck
				{
					OFFSET 0.000000 -1.226414 25.723503
					CHANNELS 3 Xrotation Yrotation Zrotation
					JOINT Head
					{
						OFFSET 0.000000 -0.000001 7.771751
						CHANNELS 3 Xrotation Yrotation Zrotation
						End Site
						{
							OFFSET 0.000000 6.203937 18.812004
						}
					}
				}
				JOINT RightShoulder
				{
					OFFSET -4.218800 0.587437 10.820000
					CHANNELS 3 Xrotation Yrotation Zrotation
					JOINT RightArm
					{
						OFFSET 0.000000 -0.000002 14.191399
						CHANNELS 3 Xrotation Yrotation Zrotation
						JOINT RightArmRoll
						{
							OFFSET 0.000000 -0.000001 7.164078
							CHANNELS 3 Xrotation Yrotation Zrotation
							JOINT RightForeArm
							{
								OFFSET 0.000000 -0.000003 20.866508
								CHANNELS 3 Xrotation Yrotation Zrotation
								JOINT RightForeArmRoll
								{
									OFFSET 0.000000 -0.000001 8.039215
									CHANNELS 3 Xrotation Yrotation Zrotation
									JOINT RightHand
									{
										OFFSET 0.000000 -0.000003 16.132996
										CHANNELS 3 Xrotation Yrotation Zrotation
										End Site
										{
											OFFSET 0.000000 0.000000 0.100006
										}
									}
								}
							}
						}
					}
				}
				JOINT LeftShoulder
				{
					OFFSET 4.218800 0.587437 10.820000
					CHANNELS 3 Xrotation Yrotation Zrotation
					JOINT LeftArm
					{
						OFFSET 0.000000 -0.000002 14.191399
						CHANNELS 3 Xrotation Yrotation Zrotation
						JOINT LeftArmRoll
						{
							OFFSET 0.000000 -0.000001 7.164078
							CHANNELS 3 Xrotation Yrotation Zrotation
							JOINT LeftForeArm
							{
								OFFSET 0.000000 -0.000003 20.866508
								CHANNELS 3 Xrotation Yrotation Zrotation
								JOINT LeftForeArmRoll
								{
									OFFSET 0.000000 -0.000001 8.039215
									CHANNELS 3 Xrotation Yrotation Zrotation
									JOINT LeftHand
									{
										OFFSET 0.000000 -0.000003 16.132996
										CHANNELS 3 Xrotation Yrotation Zrotation
										End Site
										{
											OFFSET 0.000000 0.000000 0.100006
										}
									}
								}
							}
						}
					}
				}
			}
		}
	}
	JOINT RightUpLeg
	{
		OFFSET -7.357731 1.131810 -1.349209
		CHANNELS 3 Xrotation Yrotation Zrotation
		JOINT RightUpLegRoll
		{
			OFFSET 0.000000 -0.000003 18.916798
			CHANNELS 3 Xrotation Yrotation Zrotation
			JOINT RightLeg
			{
				OFFSET 0.000000 0.000004 -23.425598
				CHANNELS 3 Xrotation Yrotation Zrotation
				JOINT RightLegRoll
				{
					OFFSET 0.000000 -0.000004 23.502304
					CHANNELS 3 Xrotation Yrotation Zrotation
					JOINT RightFoot
					{
						OFFSET 0.000000 -0.000003 19.561699
						CHANNELS 3 Xrotation Yrotation Zrotation
						JOINT RightToeBase
						{
							OFFSET 0.000000 -0.000003 16.352600
							CHANNELS 3 Xrotation Yrotation Zrotation
							End Site
							{
								OFFSET 0.006931 0.912835 7.919441
							}
						}
					}
				}
			}
		}
	}
	JOINT LeftUpLeg
	{
		OFFSET 7.357731 1.131810 -1.349209
		CHANNELS 3 Xrotation Yrotation Zrotation
		JOINT LeftUpLegRoll
		{
			OFFSET 0.000000 -0.000003 18.916904
			CHANNELS 3 Xrotation Yrotation Zrotation
			JOINT LeftLeg
			{
				OFFSET 0.000000 -0.000004 23.425499
				CHANNELS 3 Xrotation Yrotation Zrotation
				JOINT LeftLegRoll
				{
					OFFSET 0.000000 -0.000004 23.719498
					CHANNELS 3 Xrotation Yrotation Zrotation
					JOINT LeftFoot
					{
						OFFSET 0.000000 -0.000003 19.344398
						CHANNELS 3 Xrotation Yrotation Zrotation
						JOINT LeftToeBase
						{
							OFFSET 0.000000 -0.000003 16.352600
							CHANNELS 3 Xrotation Yrotation Zrotation
							End Site
							{
								OFFSET -0.031063 0.912835 7.919434
							}
						}
					}
				}
			}
		}
	}
}
MOTION
Frames: 9
Frame Time: 0.041667
47.449799 -0.902956 52.438705 -9.669226 -0.462572 1.319607 4.034762 -0.700804 0.377007 12.078053 -1.359966 0.825978 13.723288 -1.350247 0.842477 4.859431 10.101914 -1.130850 -5.594385 -4.584921 -2.038313 -9.514386 -54.338830 -10.936723 -58.772624 -133.725009 -29.255999 -0.000002 -0.000022 0.000000 17.811308 3.768841 1.325631 -0.000002 -0.000003 -3.002670 -5.000213 -7.998983 0.000129 1.856199 63.808891 -1.496059 -69.186353 124.153182 53.648052 0.000003 0.000004 -0.000004 9.944955 5.365578 0.356188 0.000002 -0.000017 3.003770 -5.000213 7.998803 -0.000143 -83.002460 -164.150046 8.411387 -179.999991 0.000005 -1.630006 76.759742 4.512208 2.988957 -0.000006 0.000001 2.385290 76.121140 8.111430 -2.304614 25.463193 -7.346940 0.011393 -84.011033 162.477797 -6.925995 -0.000005 0.000012 -1.412901 -104.425246 -5.318408 -4.836540 -0.000008 0.000002 -2.653591 72.974588 -7.311067 -0.618059 28.286762 7.338336 -0.362084 
47.456600 -0.893123 52.428303 -9.771760 -0.459435 1.324976 4.028418 -0.698903 0.377349 12.065428 -1.355541 0.828029 13.710654 -1.345821 0.844397 4.925954 10.086081 -1.148735 -5.562006 -4.606724 -2.046117 -9.522067 -54.423104 -10.951593 -58.770861 -133.586547 -29.290272 -0.000001 -0.000022 -0.000002 17.817877 3.689942 1.318517 -0.000005 -0.000002 -3.002660 -5.000214 -7.998983 0.000126 1.821095 63.858656 -1.449623 -69.190704 124.074812 53.652239 0.000004 0.000004 -0.000005 9.934088 5.389381 0.354515 0.000004 -0.000016 3.003769 -5.000211 7.998802 -0.000143 -82.925238 -164.138830 8.421181 -179.999991 0.000006 -1.631003 76.750522 4.512454 2.992755 -0.000007 0.000001 2.384911 76.105246 8.116337 -2.316672 25.465310 -7.346937 0.011515 -83.941652 162.494217 -6.910031 -0.000004 0.000012 -1.412960 -104.441468 -5.328173 -4.853544 -0.000008 0.000002 -2.651349 72.956563 -7.307122 -0.629442 28.288881 7.338336 -0.362123 
47.455799 -0.880009 52.409504 -9.873638 -0.455488 1.329482 4.022248 -0.697170 0.377577 12.053003 -1.351565 0.829617 13.698233 -1.341851 0.845866 4.994253 10.070112 -1.166000 -5.536048 -4.625240 -2.053581 -9.527678 -54.503024 -10.963656 -58.766271 -133.454274 -29.319400 -0.000001 -0.000021 0.000001 17.819142 3.615010 1.311856 -0.000003 -0.000002 -3.002660 -5.000215 -7.998984 0.000128 1.781659 63.908748 -1.398251 -69.192992 123.997877 53.652041 0.000004 0.000003 -0.000005 9.922939 5.411221 0.353042 0.000005 -0.000017 3.003769 -5.000210 7.998801 -0.000143 -82.847422 -164.129255 8.432584 -179.999991 0.000005 -1.632000 76.743309 4.512417 2.996039 -0.000007 0.000002 2.384478 76.088301 8.121256 -2.328450 25.467134 -7.346943 0.011600 -83.872080 162.509284 -6.894440 -0.000004 0.000010 -1.413000 -104.456747 -5.337896 -4.871503 -0.000008 0.000002 -2.649160 72.938948 -7.303373 -0.640429 28.290601 7.338336 -0.362156 
47.452099 -0.871365 52.393108 -9.974794 -0.450693 1.332946 4.016236 -0.695603 0.377682 12.040982 -1.348065 0.830663 13.686204 -1.338344 0.846810 5.065122 10.053993 -1.182566 -5.517863 -4.639806 -2.060623 -9.530878 -54.577719 -10.972447 -58.757474 -133.329582 -29.341335 -0.000002 -0.000022 -0.000000 17.814520 3.544509 1.305661 -0.000001 -0.000002 -3.002660 -5.000215 -7.998981 0.000128 1.737348 63.959005 -1.341351 -69.191660 123.922540 53.645532 0.000004 0.000004 -0.000005 9.912122 5.430771 0.351773 0.000001 -0.000017 3.003770 -5.000212 7.998801 -0.000143 -82.769387 -164.121359 8.443709 -179.999991 0.000006 -1.632999 76.738254 4.512162 2.998608 -0.000008 0.000001 2.383990 76.070433 8.126148 -2.340160 25.468648 -7.346941 0.011678 -83.802555 162.522821 -6.878724 -0.000005 0.000010 -1.413030 -104.470694 -5.347697 -4.887408 -0.000009 0.000001 -2.647042 72.921251 -7.299910 -0.650963 28.292117 7.338337 -0.362235 
47.452000 -0.861318 52.381104 -10.075107 -0.445009 1.335202 4.010384 -0.694203 0.377649 12.029266 -1.345053 0.831083 13.674487 -1.335350 0.847158 5.139339 10.037614 -1.198344 -5.508817 -4.649742 -2.067200 -9.531415 -54.646499 -10.977623 -58.743657 -133.213155 -29.355108 -0.000001 -0.000022 -0.000001 17.803303 3.478884 1.299968 -0.000002 -0.000002 -3.002650 -5.000213 -7.998981 0.000130 1.687642 64.009405 -1.278346 -69.187617 123.847900 53.633511 0.000005 0.000004 -0.000004 9.902246 5.447753 0.350725 0.000004 -0.000016 3.003769 -5.000209 7.998802 -0.000142 -82.690956 -164.115485 8.454967 -179.999991 0.000007 -1.635006 76.735666 4.511702 3.000459 -0.000008 0.000002 2.383427 76.051438 8.131117 -2.351679 25.469661 -7.346944 0.011717 -83.733010 162.534610 -6.863482 -0.000004 0.000010 -1.413020 -104.483419 -5.357377 -4.904242 -0.000008 0.000002 -2.644972 72.903356 -7.296753 -0.660751 28.293534 7.338341 -0.362367 
47.458099 -0.849763 52.371605 -10.174597 -0.438392 1.336062 4.004682 -0.692973 0.377471 12.017848 -1.342567 0.830799 13.663068 -1.332868 0.846829 5.217701 10.020857 -1.213241 -5.510270 -4.654349 -2.073252 -9.528996 -54.708579 -10.978776 -58.724908 -133.105169 -29.360907 -0.000002 -0.000023 -0.000002 17.784904 3.418603 1.294793 -0.000004 -0.000004 -3.002650 -5.000220 -7.998981 0.000128 1.632006 64.059859 -1.208634 -69.177959 123.774584 53.612180 0.000004 0.000003 -0.000005 9.893929 5.461845 0.349883 0.000001 -0.000017 3.003770 -5.000209 7.998800 -0.000143 -82.611623 -164.111960 8.467914 -179.999991 0.000007 -1.636002 76.735748 4.511002 3.001674 -0.000008 0.000002 2.382799 76.031460 8.136017 -2.362836 25.470054 -7.346938 0.011718 -83.663991 162.544336 -6.847064 -0.000005 0.000013 -1.412971 -104.494443 -5.367000 -4.920994 -0.000007 0.000001 -2.642958 72.884634 -7.293948 -0.670148 28.295146 7.338348 -0.362625 
47.448299 -0.837276 52.370098 -10.272198 -0.432450 1.336588 3.998682 -0.691819 0.377465 12.005833 -1.340416 0.830420 13.651058 -1.330711 0.846423 5.302688 10.002681 -1.229171 -5.523714 -4.651906 -2.080448 -9.525194 -54.764740 -10.977863 -58.698946 -133.001296 -29.357167 -0.000001 -0.000021 -0.000000 17.763167 3.360936 1.289950 -0.000003 -0.000001 -3.002652 -5.000215 -7.998981 0.000130 1.576824 64.112267 -1.139228 -69.167017 123.701720 53.586331 0.000005 0.000004 -0.000005 9.885546 5.473618 0.349273 0.000005 -0.000015 3.003771 -5.000211 7.998804 -0.000143 -82.534674 -164.108996 8.479190 -179.999991 0.000007 -1.637001 76.737633 4.510613 3.002756 -0.000007 0.000001 2.382129 76.010095 8.140885 -2.373693 25.469958 -7.346946 0.011666 -83.595717 162.553530 -6.832553 -0.000004 0.000012 -1.412939 -104.504811 -5.376387 -4.936690 -0.000007 0.000001 -2.641067 72.866719 -7.291523 -0.678849 28.296164 7.338342 -0.362906 
47.444698 -0.828638 52.348503 -10.367291 -0.428407 1.337736 3.992051 -0.690670 0.377877 11.992619 -1.338417 0.830483 13.637841 -1.328705 0.846462 5.395223 9.982080 -1.247588 -5.548680 -4.641864 -2.090099 -9.521499 -54.816575 -10.976818 -58.667910 -132.895715 -29.347718 0.000001 -0.000021 0.000003 17.741860 3.303366 1.285220 -0.000004 -0.000004 -3.002640 -5.000216 -7.998982 0.000128 1.527371 64.167906 -1.075927 -69.159647 123.629033 53.561568 0.000004 0.000004 -0.000005 9.875238 5.483862 0.348901 0.000005 -0.000016 3.003770 -5.000213 7.998803 -0.000143 -82.462008 -164.104775 8.487855 -179.999991 0.000005 -1.637997 76.740085 4.510978 3.004299 -0.000007 0.000002 2.381448 75.986906 8.145828 -2.384206 25.469856 -7.346940 0.011617 -83.529109 162.563570 -6.819726 -0.000005 0.000009 -1.412981 -104.515350 -5.385586 -4.952368 -0.000008 0.000001 -2.639371 72.851214 -7.289372 -0.686733 28.295749 7.338349 -0.363114 
47.443604 -0.816840 52.341404 -10.460191 -0.425645 1.339218 3.984970 -0.689565 0.378589 11.978408 -1.336639 0.830802 13.623625 -1.326909 0.846759 5.493712 9.959767 -1.267795 -5.583575 -4.625446 -2.101580 -9.517493 -54.864318 -10.975130 -58.631368 -132.790639 -29.331394 -0.000001 -0.000022 0.000000 17.719684 3.246666 1.280644 -0.000002 -0.000002 -3.002641 -5.000215 -7.998983 0.000128 1.481476 64.226297 -1.016344 -69.153077 123.557248 53.535012 0.000004 0.000005 -0.000006 9.863184 5.492547 0.348744 0.000003 -0.000017 3.003771 -5.000210 7.998803 -0.000142 -82.392586 -164.099926 8.494732 -179.999991 0.000006 -1.640004 76.743418 4.511789 3.006064 -0.000008 0.000002 2.380749 75.962188 8.150740 -2.394414 25.469852 -7.346943 0.011589 -83.462917 162.574020 -6.810391 -0.000004 0.000011 -1.413080 -104.525984 -5.394529 -4.967006 -0.000008 0.000002 -2.637838 72.837786 -7.287470 -0.693821 28.294240 7.338348 -0.363265 
